HIERARCHY
ROOT Hips
{
  OFFSET 52.4707 92.7934 5.774
  CHANNELS 6 Xposition Yposition Zposition Zrotation Xrotation Yrotation
  JOINT spine
  {
    OFFSET 0 7.80059 0.448573
    CHANNELS 3 Zrotation Xrotation Yrotation
    JOINT spine1
    {
      OFFSET 0 10.1364 0
      CHANNELS 3 Zrotation Xrotation Yrotation
      JOINT spine2
      {
        OFFSET 0 9.71251 0
        CHANNELS 3 Zrotation Xrotation Yrotation
        JOINT Neck
        {
          OFFSET 0 24.9361 1.18887
          CHANNELS 3 Zrotation Xrotation Yrotation
          JOINT Head
          {
            OFFSET 0 7.53384 0
            CHANNELS 3 Zrotation Xrotation Yrotation
            End Site
            {
              OFFSET 0 18.2361 -6.01402
            }
          }
        }
        JOINT RightShoulder
        {
          OFFSET -4.08965 10.4888 -0.569457
          CHANNELS 3 Zrotation Xrotation Yrotation
          JOINT RightArm
          {
            OFFSET 0 13.757 0
            CHANNELS 3 Zrotation Xrotation Yrotation
            JOINT RightArmRoll
            {
              OFFSET 0 6.94478 0
              CHANNELS 3 Zrotation Xrotation Yrotation
              JOINT RightForeArm
              {
                OFFSET 0 20.2277 0
                CHANNELS 3 Zrotation Xrotation Yrotation
                JOINT RightForeArmRoll
                {
                  OFFSET 0 7.79312 0
                  CHANNELS 3 Zrotation Xrotation Yrotation
                  JOINT RightHand
                  {
                    OFFSET 0 15.6391 0
                    CHANNELS 3 Zrotation Xrotation Yrotation
                    End Site
                    {
                      OFFSET 0 0 0
                    }
                  }
                }
              }
            }
          }
        }
        JOINT LeftShoulder
        {
          OFFSET 4.08965 10.4888 -0.569457
          CHANNELS 3 Zrotation Xrotation Yrotation
          JOINT LeftArm
          {
            OFFSET 0 13.757 0
            CHANNELS 3 Zrotation Xrotation Yrotation
            JOINT LeftArmRoll
            {
              OFFSET 0 6.94478 0
              CHANNELS 3 Zrotation Xrotation Yrotation
              JOINT LeftForeArm
              {
                OFFSET 0 20.2277 0
                CHANNELS 3 Zrotation Xrotation Yrotation
                JOINT LeftForeArmRoll
                {
                  OFFSET 0 7.79312 0
                  CHANNELS 3 Zrotation Xrotation Yrotation
                  JOINT LeftHand
                  {
                    OFFSET 0 15.6391 0
                    CHANNELS 3 Zrotation Xrotation Yrotation
                    End Site
                    {
                      OFFSET 0 0 0
                    }
                  }
                }
              }
            }
          }
        }
      }
    }
  }
  JOINT RightUpLeg
  {
    OFFSET -6.91416 -1.26788 -1.06358
    CHANNELS 3 Zrotation Xrotation Yrotation
    JOINT RightUpLegRoll
    {
      OFFSET 0 18.3378 0
      CHANNELS 3 Zrotation Xrotation Yrotation
      JOINT RightLeg
      {
        OFFSET 0 -22.7085 0
        CHANNELS 3 Zrotation Xrotation Yrotation
        JOINT RightLegRoll
        {
          OFFSET 0 22.7828 0
          CHANNELS 3 Zrotation Xrotation Yrotation
          JOINT RightFoot
          {
            OFFSET 0 18.9629 0
            CHANNELS 3 Zrotation Xrotation Yrotation
            JOINT RightToeBase
            {
              OFFSET 0 15.852 0
              CHANNELS 3 Zrotation Xrotation Yrotation
              End Site
              {
                OFFSET 0.00671906 7.67701 -0.884893
              }
            }
          }
        }
      }
    }
  }
  JOINT LeftUpLeg
  {
    OFFSET 6.91416 -1.26788 -1.06358
    CHANNELS 3 Zrotation Xrotation Yrotation
    JOINT LeftUpLegRoll
    {
      OFFSET 0 18.3379 0
      CHANNELS 3 Zrotation Xrotation Yrotation
      JOINT LeftLeg
      {
        OFFSET 0 22.7084 0
        CHANNELS 3 Zrotation Xrotation Yrotation
        JOINT LeftLegRoll
        {
          OFFSET 0 22.9934 0
          CHANNELS 3 Zrotation Xrotation Yrotation
          JOINT LeftFoot
          {
            OFFSET 0 18.7522 0
            CHANNELS 3 Zrotation Xrotation Yrotation
            JOINT LeftToeBase
            {
              OFFSET 0 15.852 0
              CHANNELS 3 Zrotation Xrotation Yrotation
              End Site
              {
                OFFSET -0.030112 7.67701 -0.884892
              }
            }
          }
        }
      }
    }
  }
}
MOTION
Frames: 7
Frame Time: 0.00208333
54.3201 93.1428 7.67855 3.9831 -5.31774 -6.65371 -0.557019 -0.825472 0.710565 -1.12706 2.35026 1.47665 -1.14607 3.99492 1.49661 -19.8139 17.99 2.69853 23.4644 -12.9314 1.60363 65.8148 -3.35714 -2.65136 109.723 16.0434 5.28549 -6.52237e-007 1.30006e-007 -1.69017e-007 13.68 7.81238 -1.66044 9.14381e-007 5.56371e-006 -3 8.02889 -4.95144 0.697672 -77.2465 1.25988 1.60348 -95.9593 -0.0301529 -13.6736 -5.06901e-015 -3.97569e-016 -0 -8.3 20.6488 3.00989 7.23881e-006 -1.7364e-006 3 -8.02919 -4.95156 -0.69773 176.664 -7.0761 1.27706 180 7.01514e-015 178.789 179.961 16.9854 179.313 -2.69141e-006 -1.98814e-007 0.818464 -40.2218 79.7136 41.6386 8.24793 26.9415 -3.52691 175.304 12.0738 11.2407 4.54188e-006 -4.6773e-006 -1.35053 -3.69072 -16.5101 -0.178335 -1.84517e-006 -2.56875e-006 -0.391327 21.8231 71.7247 -23.2195 -8.13649 25.2327 3.48773 
54.3172 93.1579 7.67764 3.98605 -5.31404 -6.65758 -0.557321 -0.82658 0.710724 -1.12771 2.34744 1.47747 -1.14672 3.99209 1.49745 -19.8121 17.9844 2.69961 23.4503 -12.92 1.60061 65.8126 -3.35805 -2.65167 109.728 16.0434 5.28655 -6.52237e-007 1.30006e-007 -1.69017e-007 13.6782 7.81361 -1.66085 9.14381e-007 5.56371e-006 -3 8.02889 -4.95144 0.697672 -77.2547 1.26216 1.60352 -95.9467 -0.0327424 -13.6704 1.64991e-014 1.59028e-015 -6.36111e-015 -8.30688 20.6428 3.01115 7.23881e-006 -1.7364e-006 3 -8.02919 -4.95156 -0.69773 176.651 -7.07045 1.29506 180 7.01514e-015 178.789 179.94 16.9883 179.318 -2.69141e-006 -1.98814e-007 0.81742 -40.2305 79.7117 41.6386 8.24815 26.9444 -3.52737 175.302 12.0718 11.2436 4.54188e-006 -4.6773e-006 -1.34963 -3.68816 -16.4988 -0.177475 -1.84517e-006 -2.56875e-006 -0.391448 21.8127 71.7181 -23.2113 -8.13649 25.2327 3.48773 
54.3152 93.1464 7.68562 3.98903 -5.31019 -6.6612 -0.557626 -0.82771 0.710872 -1.12842 2.34454 1.47829 -1.14743 3.98919 1.49829 -19.8098 17.9786 2.70051 23.4359 -12.9082 1.5974 65.8108 -3.35902 -2.65206 109.734 16.0433 5.28714 -6.52237e-007 1.30006e-007 -1.69017e-007 13.6767 7.81515 -1.66129 9.14381e-007 5.56371e-006 -3 8.02889 -4.95144 0.697672 -77.2628 1.26453 1.60352 -95.9342 -0.0353057 -13.6681 1.04859e-014 1.19271e-015 -1.59028e-015 -8.31303 20.6367 3.01226 7.23881e-006 -1.7364e-006 3 -8.02919 -4.95156 -0.69773 176.637 -7.06457 1.31362 180 7.01514e-015 178.789 179.918 16.9915 179.323 -2.69141e-006 -1.98814e-007 0.816344 -40.2406 79.7099 41.6397 8.24837 26.9473 -3.52782 175.299 12.0703 11.2471 4.54188e-006 -4.6773e-006 -1.34874 -3.68516 -16.4878 -0.176526 -1.84517e-006 -2.56875e-006 -0.391629 21.8022 71.7116 -23.2032 -8.13649 25.2327 3.48773 
54.3105 93.1616 7.67899 3.99205 -5.30623 -6.66465 -0.557933 -0.828855 0.711014 -1.12917 2.34158 1.47911 -1.14819 3.98623 1.49912 -19.8072 17.9728 2.70129 23.4213 -12.8959 1.59405 65.8093 -3.36005 -2.65251 109.739 16.0431 5.2874 -6.52237e-007 1.30006e-007 -1.69017e-007 13.6756 7.8169 -1.66175 9.14381e-007 5.56371e-006 -3 8.02889 -4.95144 0.697672 -77.2709 1.26697 1.60347 -95.9218 -0.0378505 -13.6664 -3.27995e-015 -1.19271e-015 -1.59028e-015 -8.31866 20.6305 3.01327 7.23881e-006 -1.7364e-006 3 -8.02919 -4.95156 -0.69773 176.623 -7.05851 1.33258 180 7.01514e-015 178.789 179.896 16.995 179.328 -2.69141e-006 -1.98814e-007 0.815246 -40.2517 79.7083 41.6415 8.24859 26.9503 -3.52827 175.296 12.069 11.2509 4.54188e-006 -4.6773e-006 -1.34785 -3.68184 -16.477 -0.175517 -1.84517e-006 -2.56875e-006 -0.391851 21.7915 71.7052 -23.1951 -8.13649 25.2327 3.48773 
54.3108 93.1437 7.67473 3.99509 -5.30222 -6.66801 -0.558242 -0.830008 0.711152 -1.12995 2.3386 1.47992 -1.14897 3.98325 1.49995 -19.8043 17.9669 2.70199 23.4066 -12.8835 1.59062 65.8081 -3.36111 -2.65298 109.743 16.0429 5.28747 -6.52237e-007 1.30006e-007 -1.69017e-007 13.6746 7.81878 -1.66221 9.14381e-007 5.56371e-006 -3 8.02889 -4.95144 0.697672 -77.2789 1.26945 1.60341 -95.9095 -0.0403847 -13.665 -6.85807e-015 -1.98785e-015 -1.59028e-015 -8.324 20.6242 3.01422 7.23881e-006 -1.7364e-006 3 -8.02919 -4.95156 -0.69773 176.608 -7.05235 1.35176 180 7.01514e-015 178.789 179.873 16.9985 179.333 -2.69141e-006 -1.98814e-007 0.814135 -40.2634 79.7066 41.6438 8.24881 26.9533 -3.52872 175.293 12.068 11.255 4.54188e-006 -4.6773e-006 -1.34697 -3.67835 -16.4663 -0.174472 -1.84517e-006 -2.56875e-006 -0.392096 21.7807 71.6987 -23.1871 -8.13649 25.2327 3.48773 
54.3081 93.1565 7.67468 3.99813 -5.29818 -6.67134 -0.558552 -0.831164 0.711289 -1.13074 2.3356 1.48074 -1.14975 3.98026 1.50079 -19.8015 17.961 2.70268 23.3918 -12.871 1.58718 65.8068 -3.36218 -2.65346 109.748 16.0426 5.2875 -6.52237e-007 1.30006e-007 -1.69017e-007 13.6736 7.82069 -1.66268 9.14381e-007 5.56371e-006 -3 8.02889 -4.95144 0.697672 -77.2869 1.27194 1.60335 -95.8972 -0.0429164 -13.6638 7.60351e-015 3.97569e-016 -1.59028e-015 -8.32927 20.6178 3.01515 7.23881e-006 -1.7364e-006 3 -8.02919 -4.95156 -0.69773 176.594 -7.04617 1.37099 180 7.01514e-015 178.789 179.85 17.0022 179.339 -2.69141e-006 -1.98814e-007 0.813021 -40.2752 79.705 41.6461 8.24903 26.9562 -3.52917 175.29 12.067 11.2592 4.54188e-006 -4.6773e-006 -1.34609 -3.67482 -16.4556 -0.173418 -1.84517e-006 -2.56875e-006 -0.392347 21.7698 71.6923 -23.1791 -8.13649 25.2327 3.48773 
54.3122 93.1392 7.68035 4.00117 -5.29418 -6.67473 -0.558861 -0.832315 0.711427 -1.13151 2.33262 1.48156 -1.15053 3.97728 1.50162 -19.7987 17.9552 2.7034 23.3771 -12.8586 1.58377 65.8055 -3.36323 -2.65393 109.753 16.0423 5.28762 -6.52237e-007 1.30006e-007 -1.69017e-007 13.6726 7.82253 -1.66315 9.14381e-007 5.56371e-006 -3 8.02889 -4.95144 0.697672 -77.2949 1.27441 1.60329 -95.8848 -0.0454533 -13.6624 -6.85807e-015 -1.98785e-015 -3.18055e-015 -8.33468 20.6115 3.01611 7.23881e-006 -1.7364e-006 3 -8.02919 -4.95156 -0.69773 176.58 -7.04004 1.39012 180 7.01514e-015 178.789 179.828 17.0057 179.344 -2.69141e-006 -1.98814e-007 0.811913 -40.2867 79.7033 41.6482 8.24924 26.9592 -3.52962 175.287 12.066 11.2632 4.54188e-006 -4.6773e-006 -1.34521 -3.67137 -16.4449 -0.172382 -1.84517e-006 -2.56875e-006 -0.392587 21.7591 71.6859 -23.171 -8.13649 25.2327 3.48773 
